<svg width="1558" height="500" viewBox="0 0 1558 500" fill="none" xmlns="http://www.w3.org/2000/svg">
<rect width="1558" height="500" fill="white"/>
<rect x="636" y="236.021" width="183.141" height="183.141" rx="20" transform="rotate(-45 636 236.021)" fill="#3F3F46"/>
<rect x="636" y="176.5" width="183.141" height="183.141" rx="20" transform="rotate(-45 636 176.5)" fill="#525252" fill-opacity="0.62"/>
<path d="M740.228 414.32C738.82 414.32 737.593 414.053 736.548 413.52C735.524 412.987 734.724 412.219 734.148 411.216C733.593 410.192 733.316 408.987 733.316 407.6V397.04C733.316 395.632 733.593 394.427 734.148 393.424C734.724 392.421 735.524 391.653 736.548 391.12C737.593 390.587 738.82 390.32 740.228 390.32C741.636 390.32 742.852 390.597 743.876 391.152C744.9 391.685 745.689 392.453 746.244 393.456C746.799 394.459 747.076 395.653 747.076 397.04H744.196C744.196 395.717 743.844 394.704 743.14 394C742.457 393.275 741.487 392.912 740.228 392.912C738.969 392.912 737.977 393.264 737.252 393.968C736.548 394.672 736.196 395.685 736.196 397.008V407.6C736.196 408.923 736.548 409.947 737.252 410.672C737.977 411.376 738.969 411.728 740.228 411.728C741.487 411.728 742.457 411.376 743.14 410.672C743.844 409.947 744.196 408.923 744.196 407.6H747.076C747.076 408.965 746.799 410.16 746.244 411.184C745.689 412.187 744.9 412.965 743.876 413.52C742.852 414.053 741.636 414.32 740.228 414.32ZM757.752 414.32C755.896 414.32 754.434 413.851 753.368 412.912C752.301 411.952 751.768 410.661 751.768 409.04C751.768 407.397 752.301 406.107 753.368 405.168C754.434 404.229 755.874 403.76 757.688 403.76H763.128V402C763.128 400.912 762.797 400.08 762.136 399.504C761.496 398.907 760.578 398.608 759.384 398.608C758.338 398.608 757.464 398.832 756.76 399.28C756.056 399.707 755.65 400.293 755.544 401.04H752.664C752.856 399.525 753.57 398.32 754.808 397.424C756.045 396.528 757.592 396.08 759.448 396.08C761.474 396.08 763.074 396.603 764.248 397.648C765.421 398.693 766.008 400.112 766.008 401.904V414H763.192V410.64H762.712L763.192 410.16C763.192 411.44 762.69 412.453 761.688 413.2C760.706 413.947 759.394 414.32 757.752 414.32ZM758.456 412.048C759.821 412.048 760.941 411.707 761.816 411.024C762.69 410.341 763.128 409.467 763.128 408.4V405.904H757.752C756.792 405.904 756.034 406.171 755.48 406.704C754.925 407.237 754.648 407.963 754.648 408.88C754.648 409.861 754.978 410.64 755.64 411.216C756.322 411.771 757.261 412.048 758.456 412.048ZM780.395 414C778.88 414 777.696 413.595 776.843 412.784C776.011 411.973 775.595 410.832 775.595 409.36V399.024H770.635V396.4H775.595V391.44H778.475V396.4H785.515V399.024H778.475V409.36C778.475 410.704 779.115 411.376 780.395 411.376H785.195V414H780.395ZM796.127 414.32C794.271 414.32 792.809 413.851 791.743 412.912C790.676 411.952 790.143 410.661 790.143 409.04C790.143 407.397 790.676 406.107 791.743 405.168C792.809 404.229 794.249 403.76 796.062 403.76H801.503V402C801.503 400.912 801.172 400.08 800.511 399.504C799.871 398.907 798.953 398.608 797.759 398.608C796.713 398.608 795.839 398.832 795.135 399.28C794.431 399.707 794.025 400.293 793.919 401.04H791.039C791.231 399.525 791.945 398.32 793.183 397.424C794.42 396.528 795.967 396.08 797.823 396.08C799.849 396.08 801.449 396.603 802.623 397.648C803.796 398.693 804.383 400.112 804.383 401.904V414H801.567V410.64H801.087L801.567 410.16C801.567 411.44 801.065 412.453 800.063 413.2C799.081 413.947 797.769 414.32 796.127 414.32ZM796.831 412.048C798.196 412.048 799.316 411.707 800.191 411.024C801.065 410.341 801.503 409.467 801.503 408.4V405.904H796.127C795.167 405.904 794.409 406.171 793.855 406.704C793.3 407.237 793.023 407.963 793.023 408.88C793.023 409.861 793.353 410.64 794.015 411.216C794.697 411.771 795.636 412.048 796.831 412.048ZM819.25 414C818.226 414 817.33 413.797 816.562 413.392C815.794 412.987 815.197 412.411 814.77 411.664C814.343 410.917 814.13 410.043 814.13 409.04V393.264H808.21V390.64H817.01V409.04C817.01 409.765 817.213 410.341 817.618 410.768C818.023 411.173 818.567 411.376 819.25 411.376H824.85V414H819.25ZM832.134 419.76L834.726 412.912L828.198 396.4H831.398L835.494 407.28C835.643 407.643 835.782 408.08 835.91 408.592C836.038 409.083 836.144 409.499 836.23 409.84C836.315 409.499 836.422 409.083 836.55 408.592C836.678 408.08 836.806 407.643 836.934 407.28L840.774 396.4H843.878L835.206 419.76H832.134ZM854.681 414.256C853.486 414.256 852.441 414.075 851.545 413.712C850.67 413.328 849.966 412.795 849.433 412.112C848.921 411.429 848.612 410.619 848.505 409.68H851.385C851.513 410.299 851.854 410.789 852.409 411.152C852.985 411.515 853.742 411.696 854.681 411.696H856.025C857.156 411.696 857.998 411.472 858.553 411.024C859.108 410.555 859.385 409.936 859.385 409.168C859.385 408.421 859.129 407.835 858.617 407.408C858.126 406.96 857.39 406.661 856.409 406.512L854.041 406.128C852.313 405.829 851.022 405.296 850.169 404.528C849.337 403.739 848.921 402.597 848.921 401.104C848.921 399.525 849.422 398.309 850.425 397.456C851.428 396.581 852.932 396.144 854.937 396.144H856.153C857.838 396.144 859.193 396.539 860.217 397.328C861.241 398.117 861.86 399.184 862.073 400.528H859.193C859.065 399.973 858.745 399.536 858.233 399.216C857.721 398.875 857.028 398.704 856.153 398.704H854.937C853.849 398.704 853.049 398.907 852.537 399.312C852.046 399.717 851.801 400.325 851.801 401.136C851.801 401.861 852.014 402.395 852.441 402.736C852.868 403.077 853.54 403.323 854.457 403.472L856.825 403.856C858.724 404.155 860.1 404.709 860.953 405.52C861.828 406.331 862.265 407.504 862.265 409.04C862.265 410.661 861.742 411.941 860.697 412.88C859.673 413.797 858.116 414.256 856.025 414.256H854.681ZM876.333 414C874.818 414 873.634 413.595 872.781 412.784C871.949 411.973 871.533 410.832 871.533 409.36V399.024H866.573V396.4H871.533V391.44H874.413V396.4H881.453V399.024H874.413V409.36C874.413 410.704 875.053 411.376 876.333 411.376H881.133V414H876.333Z" fill="#3F3F46"/>
<path d="M654.032 412L646.704 389.6H652.08L658.448 409.44H655.76L662.416 389.6H667.216L673.616 409.44H671.024L677.552 389.6H682.512L675.184 412H669.616L663.952 394.592H665.424L659.6 412H654.032ZM692.317 412.256C690.354 412.256 688.626 411.872 687.133 411.104C685.661 410.336 684.519 409.291 683.709 407.968C682.898 406.624 682.493 405.099 682.493 403.392C682.493 401.664 682.887 400.139 683.677 398.816C684.487 397.472 685.586 396.427 686.973 395.68C688.359 394.912 689.927 394.528 691.677 394.528C693.362 394.528 694.877 394.891 696.221 395.616C697.586 396.32 698.663 397.344 699.453 398.688C700.242 400.011 700.637 401.6 700.637 403.456C700.637 403.648 700.626 403.872 700.605 404.128C700.583 404.363 700.562 404.587 700.541 404.8H686.557V401.888H697.917L695.997 402.752C695.997 401.856 695.815 401.077 695.453 400.416C695.09 399.755 694.589 399.243 693.949 398.88C693.309 398.496 692.562 398.304 691.709 398.304C690.855 398.304 690.098 398.496 689.437 398.88C688.797 399.243 688.295 399.765 687.933 400.448C687.57 401.109 687.389 401.899 687.389 402.816V403.584C687.389 404.523 687.591 405.355 687.997 406.08C688.423 406.784 689.01 407.328 689.757 407.712C690.525 408.075 691.421 408.256 692.445 408.256C693.362 408.256 694.162 408.117 694.845 407.84C695.549 407.563 696.189 407.147 696.765 406.592L699.421 409.472C698.631 410.368 697.639 411.061 696.445 411.552C695.25 412.021 693.874 412.256 692.317 412.256ZM714.136 412.256C712.622 412.256 711.32 411.936 710.232 411.296C709.144 410.656 708.312 409.685 707.736 408.384C707.16 407.061 706.872 405.397 706.872 403.392C706.872 401.365 707.171 399.701 707.768 398.4C708.387 397.099 709.24 396.128 710.328 395.488C711.416 394.848 712.686 394.528 714.136 394.528C715.758 394.528 717.208 394.891 718.488 395.616C719.79 396.341 720.814 397.365 721.56 398.688C722.328 400.011 722.712 401.579 722.712 403.392C722.712 405.184 722.328 406.741 721.56 408.064C720.814 409.387 719.79 410.421 718.488 411.168C717.208 411.893 715.758 412.256 714.136 412.256ZM703.96 412V388.256H708.952V398.272L708.632 403.36L708.728 408.48V412H703.96ZM713.272 408.16C714.104 408.16 714.84 407.968 715.48 407.584C716.142 407.2 716.664 406.656 717.048 405.952C717.454 405.227 717.656 404.373 717.656 403.392C717.656 402.389 717.454 401.536 717.048 400.832C716.664 400.128 716.142 399.584 715.48 399.2C714.84 398.816 714.104 398.624 713.272 398.624C712.44 398.624 711.694 398.816 711.032 399.2C710.371 399.584 709.848 400.128 709.464 400.832C709.08 401.536 708.888 402.389 708.888 403.392C708.888 404.373 709.08 405.227 709.464 405.952C709.848 406.656 710.371 407.2 711.032 407.584C711.694 407.968 712.44 408.16 713.272 408.16Z" fill="#404040"/>
<path d="M629.444 447V443.234L626.406 436.78H627.974L629.78 440.644C629.901 440.896 629.999 441.134 630.074 441.358C630.149 441.573 630.2 441.741 630.228 441.862C630.247 441.741 630.293 441.573 630.368 441.358C630.452 441.134 630.55 440.896 630.662 440.644L632.426 436.78H633.994L630.956 443.234V447H629.444ZM638.595 447.126C637.96 447.126 637.409 447.005 636.943 446.762C636.476 446.519 636.117 446.174 635.865 445.726C635.613 445.278 635.487 444.751 635.487 444.144V442.156C635.487 441.54 635.613 441.013 635.865 440.574C636.117 440.126 636.476 439.781 636.943 439.538C637.409 439.295 637.96 439.174 638.595 439.174C639.229 439.174 639.78 439.295 640.247 439.538C640.713 439.781 641.073 440.126 641.325 440.574C641.577 441.013 641.703 441.54 641.703 442.156V444.144C641.703 444.751 641.577 445.278 641.325 445.726C641.073 446.174 640.713 446.519 640.247 446.762C639.78 447.005 639.229 447.126 638.595 447.126ZM638.595 445.796C639.108 445.796 639.505 445.656 639.785 445.376C640.065 445.087 640.205 444.676 640.205 444.144V442.156C640.205 441.615 640.065 441.204 639.785 440.924C639.505 440.644 639.108 440.504 638.595 440.504C638.091 440.504 637.694 440.644 637.405 440.924C637.125 441.204 636.985 441.615 636.985 442.156V444.144C636.985 444.676 637.125 445.087 637.405 445.376C637.694 445.656 638.091 445.796 638.595 445.796ZM646.975 447.14C646.051 447.14 645.314 446.874 644.763 446.342C644.212 445.801 643.937 445.068 643.937 444.144V439.3H645.449V444.144C645.449 444.676 645.584 445.091 645.855 445.39C646.126 445.679 646.499 445.824 646.975 445.824C647.46 445.824 647.838 445.679 648.109 445.39C648.389 445.091 648.529 444.676 648.529 444.144V439.3H650.041V444.144C650.041 445.068 649.761 445.801 649.201 446.342C648.65 446.874 647.908 447.14 646.975 447.14ZM663.834 447.14C663.199 447.14 662.644 447.023 662.168 446.79C661.701 446.547 661.337 446.202 661.076 445.754C660.824 445.297 660.698 444.765 660.698 444.158V439.622C660.698 439.006 660.824 438.474 661.076 438.026C661.337 437.578 661.701 437.237 662.168 437.004C662.644 436.761 663.199 436.64 663.834 436.64C664.469 436.64 665.019 436.761 665.486 437.004C665.953 437.247 666.312 437.592 666.564 438.04C666.825 438.479 666.956 439.006 666.956 439.622H665.444C665.444 439.09 665.304 438.684 665.024 438.404C664.744 438.124 664.347 437.984 663.834 437.984C663.321 437.984 662.919 438.124 662.63 438.404C662.35 438.684 662.21 439.085 662.21 439.608V444.158C662.21 444.681 662.35 445.087 662.63 445.376C662.919 445.656 663.321 445.796 663.834 445.796C664.347 445.796 664.744 445.656 665.024 445.376C665.304 445.087 665.444 444.681 665.444 444.158H666.956C666.956 444.765 666.825 445.292 666.564 445.74C666.312 446.188 665.953 446.533 665.486 446.776C665.019 447.019 664.469 447.14 663.834 447.14ZM672.173 447.126C671.538 447.126 670.987 447.005 670.521 446.762C670.054 446.519 669.695 446.174 669.443 445.726C669.191 445.278 669.065 444.751 669.065 444.144V442.156C669.065 441.54 669.191 441.013 669.443 440.574C669.695 440.126 670.054 439.781 670.521 439.538C670.987 439.295 671.538 439.174 672.173 439.174C672.807 439.174 673.358 439.295 673.825 439.538C674.291 439.781 674.651 440.126 674.903 440.574C675.155 441.013 675.281 441.54 675.281 442.156V444.144C675.281 444.751 675.155 445.278 674.903 445.726C674.651 446.174 674.291 446.519 673.825 446.762C673.358 447.005 672.807 447.126 672.173 447.126ZM672.173 445.796C672.686 445.796 673.083 445.656 673.363 445.376C673.643 445.087 673.783 444.676 673.783 444.144V442.156C673.783 441.615 673.643 441.204 673.363 440.924C673.083 440.644 672.686 440.504 672.173 440.504C671.669 440.504 671.272 440.644 670.983 440.924C670.703 441.204 670.563 441.615 670.563 442.156V444.144C670.563 444.676 670.703 445.087 670.983 445.376C671.272 445.656 671.669 445.796 672.173 445.796ZM680.021 447.14C679.247 447.14 678.626 446.879 678.159 446.356C677.693 445.833 677.459 445.129 677.459 444.242V442.072C677.459 441.176 677.693 440.467 678.159 439.944C678.626 439.421 679.247 439.16 680.021 439.16C680.656 439.16 681.16 439.337 681.533 439.692C681.907 440.037 682.093 440.513 682.093 441.12L681.771 440.77H682.121L682.079 438.978V436.78H683.591V447H682.093V445.53H681.771L682.093 445.18C682.093 445.787 681.907 446.267 681.533 446.622C681.16 446.967 680.656 447.14 680.021 447.14ZM680.539 445.824C681.015 445.824 681.389 445.679 681.659 445.39C681.939 445.091 682.079 444.681 682.079 444.158V442.142C682.079 441.619 681.939 441.213 681.659 440.924C681.389 440.625 681.015 440.476 680.539 440.476C680.045 440.476 679.657 440.621 679.377 440.91C679.097 441.19 678.957 441.601 678.957 442.142V444.158C678.957 444.699 679.097 445.115 679.377 445.404C679.657 445.684 680.045 445.824 680.539 445.824ZM688.962 447.14C688.336 447.14 687.786 447.019 687.31 446.776C686.843 446.524 686.484 446.174 686.232 445.726C685.98 445.278 685.854 444.755 685.854 444.158V442.142C685.854 441.535 685.98 441.013 686.232 440.574C686.484 440.126 686.843 439.781 687.31 439.538C687.786 439.286 688.336 439.16 688.962 439.16C689.596 439.16 690.147 439.286 690.614 439.538C691.08 439.781 691.44 440.126 691.692 440.574C691.944 441.013 692.07 441.535 692.07 442.142V443.514H687.31V444.158C687.31 444.727 687.45 445.161 687.73 445.46C688.019 445.759 688.434 445.908 688.976 445.908C689.414 445.908 689.769 445.833 690.04 445.684C690.31 445.525 690.478 445.297 690.544 444.998H692.042C691.93 445.651 691.594 446.174 691.034 446.566C690.474 446.949 689.783 447.14 688.962 447.14ZM690.614 442.604V442.128C690.614 441.568 690.474 441.134 690.194 440.826C689.914 440.518 689.503 440.364 688.962 440.364C688.43 440.364 688.019 440.518 687.73 440.826C687.45 441.134 687.31 441.573 687.31 442.142V442.492L690.726 442.478L690.614 442.604ZM695.368 449.24L696.488 444.886H698.504L696.684 449.24H695.368ZM711.345 447L710.239 436.78H711.597L712.283 444.116C712.302 444.303 712.316 444.508 712.325 444.732C712.344 444.956 712.358 445.175 712.367 445.39C712.386 445.605 712.395 445.791 712.395 445.95C712.414 445.791 712.433 445.605 712.451 445.39C712.47 445.175 712.489 444.956 712.507 444.732C712.535 444.508 712.563 444.303 712.591 444.116L713.473 436.78H714.873L715.699 444.116C715.718 444.303 715.737 444.508 715.755 444.732C715.783 444.956 715.811 445.175 715.839 445.39C715.867 445.605 715.886 445.791 715.895 445.95C715.905 445.791 715.914 445.605 715.923 445.39C715.942 445.175 715.961 444.956 715.979 444.732C715.998 444.508 716.017 444.303 716.035 444.116L716.735 436.78H718.051L716.903 447H715.153L714.327 439.566C714.309 439.37 714.29 439.165 714.271 438.95C714.253 438.726 714.234 438.511 714.215 438.306C714.197 438.091 714.178 437.914 714.159 437.774C714.15 437.914 714.136 438.091 714.117 438.306C714.099 438.511 714.08 438.726 714.061 438.95C714.043 439.165 714.019 439.37 713.991 439.566L713.109 447H711.345ZM722.54 447.14C721.915 447.14 721.364 447.019 720.888 446.776C720.421 446.524 720.062 446.174 719.81 445.726C719.558 445.278 719.432 444.755 719.432 444.158V442.142C719.432 441.535 719.558 441.013 719.81 440.574C720.062 440.126 720.421 439.781 720.888 439.538C721.364 439.286 721.915 439.16 722.54 439.16C723.175 439.16 723.725 439.286 724.192 439.538C724.659 439.781 725.018 440.126 725.27 440.574C725.522 441.013 725.648 441.535 725.648 442.142V443.514H720.888V444.158C720.888 444.727 721.028 445.161 721.308 445.46C721.597 445.759 722.013 445.908 722.554 445.908C722.993 445.908 723.347 445.833 723.618 445.684C723.889 445.525 724.057 445.297 724.122 444.998H725.62C725.508 445.651 725.172 446.174 724.612 446.566C724.052 446.949 723.361 447.14 722.54 447.14ZM724.192 442.604V442.128C724.192 441.568 724.052 441.134 723.772 440.826C723.492 440.518 723.081 440.364 722.54 440.364C722.008 440.364 721.597 440.518 721.308 440.826C721.028 441.134 720.888 441.573 720.888 442.142V442.492L724.304 442.478L724.192 442.604ZM736.291 447V436.78H739.147C739.819 436.78 740.402 436.911 740.897 437.172C741.392 437.424 741.774 437.783 742.045 438.25C742.325 438.717 742.465 439.267 742.465 439.902V443.864C742.465 444.489 742.325 445.04 742.045 445.516C741.774 445.992 741.392 446.361 740.897 446.622C740.402 446.874 739.819 447 739.147 447H736.291ZM737.803 445.628H739.147C739.707 445.628 740.146 445.474 740.463 445.166C740.79 444.849 740.953 444.415 740.953 443.864V439.902C740.953 439.361 740.79 438.936 740.463 438.628C740.146 438.311 739.707 438.152 739.147 438.152H737.803V445.628ZM747.723 447.14C747.098 447.14 746.547 447.019 746.071 446.776C745.605 446.524 745.245 446.174 744.993 445.726C744.741 445.278 744.615 444.755 744.615 444.158V442.142C744.615 441.535 744.741 441.013 744.993 440.574C745.245 440.126 745.605 439.781 746.071 439.538C746.547 439.286 747.098 439.16 747.723 439.16C748.358 439.16 748.909 439.286 749.375 439.538C749.842 439.781 750.201 440.126 750.453 440.574C750.705 441.013 750.831 441.535 750.831 442.142V443.514H746.071V444.158C746.071 444.727 746.211 445.161 746.491 445.46C746.781 445.759 747.196 445.908 747.737 445.908C748.176 445.908 748.531 445.833 748.801 445.684C749.072 445.525 749.24 445.297 749.305 444.998H750.803C750.691 445.651 750.355 446.174 749.795 446.566C749.235 446.949 748.545 447.14 747.723 447.14ZM749.375 442.604V442.128C749.375 441.568 749.235 441.134 748.955 440.826C748.675 440.518 748.265 440.364 747.723 440.364C747.191 440.364 746.781 440.518 746.491 440.826C746.211 441.134 746.071 441.573 746.071 442.142V442.492L749.487 442.478L749.375 442.604ZM753.094 449.52V439.3H754.592V440.77H754.914L754.592 441.12C754.592 440.513 754.779 440.037 755.152 439.692C755.535 439.337 756.043 439.16 756.678 439.16C757.453 439.16 758.069 439.421 758.526 439.944C758.993 440.457 759.226 441.162 759.226 442.058V444.228C759.226 444.825 759.119 445.343 758.904 445.782C758.699 446.211 758.405 446.547 758.022 446.79C757.649 447.023 757.201 447.14 756.678 447.14C756.053 447.14 755.549 446.967 755.166 446.622C754.783 446.267 754.592 445.787 754.592 445.18L754.914 445.53H754.564L754.606 447.322V449.52H753.094ZM756.16 445.824C756.655 445.824 757.037 445.684 757.308 445.404C757.588 445.115 757.728 444.699 757.728 444.158V442.142C757.728 441.601 757.588 441.19 757.308 440.91C757.037 440.621 756.655 440.476 756.16 440.476C755.684 440.476 755.306 440.625 755.026 440.924C754.746 441.213 754.606 441.619 754.606 442.142V444.158C754.606 444.681 754.746 445.091 755.026 445.39C755.306 445.679 755.684 445.824 756.16 445.824ZM765.619 447C765.143 447 764.727 446.907 764.373 446.72C764.018 446.524 763.738 446.249 763.533 445.894C763.337 445.539 763.239 445.129 763.239 444.662V438.152H760.719V436.78H764.751V444.662C764.751 444.961 764.835 445.199 765.003 445.376C765.171 445.544 765.399 445.628 765.689 445.628H768.069V447H765.619ZM772.907 447.126C772.272 447.126 771.722 447.005 771.255 446.762C770.788 446.519 770.429 446.174 770.177 445.726C769.925 445.278 769.799 444.751 769.799 444.144V442.156C769.799 441.54 769.925 441.013 770.177 440.574C770.429 440.126 770.788 439.781 771.255 439.538C771.722 439.295 772.272 439.174 772.907 439.174C773.542 439.174 774.092 439.295 774.559 439.538C775.026 439.781 775.385 440.126 775.637 440.574C775.889 441.013 776.015 441.54 776.015 442.156V444.144C776.015 444.751 775.889 445.278 775.637 445.726C775.385 446.174 775.026 446.519 774.559 446.762C774.092 447.005 773.542 447.126 772.907 447.126ZM772.907 445.796C773.42 445.796 773.817 445.656 774.097 445.376C774.377 445.087 774.517 444.676 774.517 444.144V442.156C774.517 441.615 774.377 441.204 774.097 440.924C773.817 440.644 773.42 440.504 772.907 440.504C772.403 440.504 772.006 440.644 771.717 440.924C771.437 441.204 771.297 441.615 771.297 442.156V444.144C771.297 444.676 771.437 445.087 771.717 445.376C772.006 445.656 772.403 445.796 772.907 445.796ZM779.51 449.52L780.616 446.552L777.746 439.3H779.412L781.022 443.64C781.087 443.827 781.152 444.051 781.218 444.312C781.283 444.573 781.339 444.788 781.386 444.956C781.423 444.788 781.474 444.573 781.54 444.312C781.605 444.051 781.67 443.827 781.736 443.64L783.248 439.3H784.858L781.106 449.52H779.51ZM789.696 447.14C789.323 447.14 789.024 447.033 788.8 446.818C788.576 446.594 788.464 446.295 788.464 445.922C788.464 445.539 788.576 445.236 788.8 445.012C789.024 444.779 789.323 444.662 789.696 444.662C790.079 444.662 790.377 444.779 790.592 445.012C790.816 445.236 790.928 445.539 790.928 445.922C790.928 446.295 790.816 446.594 790.592 446.818C790.377 447.033 790.079 447.14 789.696 447.14ZM803.601 447V436.78H809.607V438.124H805.085V441.022H809.117V442.352H805.085V445.656H809.607V447H803.601ZM813.662 447V441.484H811.478V440.112H813.662V438.866C813.662 438.222 813.867 437.713 814.278 437.34C814.688 436.967 815.248 436.78 815.958 436.78H818.212V438.124H815.986C815.724 438.124 815.519 438.189 815.37 438.32C815.23 438.451 815.16 438.637 815.16 438.88V440.112H818.212V441.484H815.16V447H813.662ZM822.056 447V441.484H819.872V440.112H822.056V438.866C822.056 438.222 822.262 437.713 822.672 437.34C823.083 436.967 823.643 436.78 824.352 436.78H826.606V438.124H824.38C824.119 438.124 823.914 438.189 823.764 438.32C823.624 438.451 823.554 438.637 823.554 438.88V440.112H826.606V441.484H823.554V447H822.056ZM831.669 447.126C831.034 447.126 830.483 447.005 830.017 446.762C829.55 446.519 829.191 446.174 828.939 445.726C828.687 445.278 828.561 444.751 828.561 444.144V442.156C828.561 441.54 828.687 441.013 828.939 440.574C829.191 440.126 829.55 439.781 830.017 439.538C830.483 439.295 831.034 439.174 831.669 439.174C832.303 439.174 832.854 439.295 833.321 439.538C833.787 439.781 834.147 440.126 834.399 440.574C834.651 441.013 834.777 441.54 834.777 442.156V444.144C834.777 444.751 834.651 445.278 834.399 445.726C834.147 446.174 833.787 446.519 833.321 446.762C832.854 447.005 832.303 447.126 831.669 447.126ZM831.669 445.796C832.182 445.796 832.579 445.656 832.859 445.376C833.139 445.087 833.279 444.676 833.279 444.144V442.156C833.279 441.615 833.139 441.204 832.859 440.924C832.579 440.644 832.182 440.504 831.669 440.504C831.165 440.504 830.768 440.644 830.479 440.924C830.199 441.204 830.059 441.615 830.059 442.156V444.144C830.059 444.676 830.199 445.087 830.479 445.376C830.768 445.656 831.165 445.796 831.669 445.796ZM837.291 447V439.3H838.747V440.77H839.111L838.649 441.68C838.649 440.849 838.831 440.224 839.195 439.804C839.559 439.375 840.101 439.16 840.819 439.16C841.641 439.16 842.289 439.417 842.765 439.93C843.251 440.434 843.493 441.129 843.493 442.016V442.534H841.939V442.142C841.939 441.591 841.799 441.171 841.519 440.882C841.249 440.583 840.866 440.434 840.371 440.434C839.877 440.434 839.489 440.583 839.209 440.882C838.939 441.181 838.803 441.601 838.803 442.142V447H837.291ZM849.298 447C848.598 447 848.052 446.809 847.66 446.426C847.268 446.043 847.072 445.511 847.072 444.83V440.672H844.944V439.3H847.072V437.13H848.584V439.3H851.594V440.672H848.584V444.83C848.584 445.362 848.84 445.628 849.354 445.628H851.454V447H849.298ZM857.958 447C857.482 447 857.067 446.907 856.712 446.72C856.358 446.524 856.078 446.249 855.872 445.894C855.676 445.539 855.578 445.129 855.578 444.662V438.152H853.058V436.78H857.09V444.662C857.09 444.961 857.174 445.199 857.342 445.376C857.51 445.544 857.739 445.628 858.028 445.628H860.408V447H857.958ZM865.247 447.14C864.622 447.14 864.071 447.019 863.595 446.776C863.128 446.524 862.769 446.174 862.517 445.726C862.265 445.278 862.139 444.755 862.139 444.158V442.142C862.139 441.535 862.265 441.013 862.517 440.574C862.769 440.126 863.128 439.781 863.595 439.538C864.071 439.286 864.622 439.16 865.247 439.16C865.882 439.16 866.432 439.286 866.899 439.538C867.366 439.781 867.725 440.126 867.977 440.574C868.229 441.013 868.355 441.535 868.355 442.142V443.514H863.595V444.158C863.595 444.727 863.735 445.161 864.015 445.46C864.304 445.759 864.72 445.908 865.261 445.908C865.7 445.908 866.054 445.833 866.325 445.684C866.596 445.525 866.764 445.297 866.829 444.998H868.327C868.215 445.651 867.879 446.174 867.319 446.566C866.759 446.949 866.068 447.14 865.247 447.14ZM866.899 442.604V442.128C866.899 441.568 866.759 441.134 866.479 440.826C866.199 440.518 865.788 440.364 865.247 440.364C864.715 440.364 864.304 440.518 864.015 440.826C863.735 441.134 863.595 441.573 863.595 442.142V442.492L867.011 442.478L866.899 442.604ZM873.375 447.126C872.825 447.126 872.339 447.037 871.919 446.86C871.509 446.683 871.182 446.44 870.939 446.132C870.706 445.815 870.571 445.441 870.533 445.012H872.045C872.083 445.264 872.218 445.469 872.451 445.628C872.685 445.777 872.993 445.852 873.375 445.852H873.977C874.435 445.852 874.78 445.759 875.013 445.572C875.247 445.385 875.363 445.138 875.363 444.83C875.363 444.531 875.256 444.298 875.041 444.13C874.836 443.953 874.528 443.836 874.117 443.78L873.123 443.626C872.302 443.495 871.695 443.262 871.303 442.926C870.921 442.581 870.729 442.072 870.729 441.4C870.729 440.691 870.958 440.145 871.415 439.762C871.882 439.37 872.568 439.174 873.473 439.174H874.005C874.808 439.174 875.447 439.361 875.923 439.734C876.409 440.098 876.684 440.588 876.749 441.204H875.237C875.2 440.98 875.074 440.798 874.859 440.658C874.654 440.518 874.369 440.448 874.005 440.448H873.473C873.035 440.448 872.713 440.532 872.507 440.7C872.311 440.859 872.213 441.097 872.213 441.414C872.213 441.694 872.302 441.904 872.479 442.044C872.657 442.184 872.932 442.282 873.305 442.338L874.327 442.506C875.195 442.627 875.83 442.87 876.231 443.234C876.642 443.589 876.847 444.107 876.847 444.788C876.847 445.525 876.605 446.099 876.119 446.51C875.643 446.921 874.929 447.126 873.977 447.126H873.375ZM881.77 447.126C881.219 447.126 880.734 447.037 880.314 446.86C879.903 446.683 879.577 446.44 879.334 446.132C879.101 445.815 878.965 445.441 878.928 445.012H880.44C880.477 445.264 880.613 445.469 880.846 445.628C881.079 445.777 881.387 445.852 881.77 445.852H882.372C882.829 445.852 883.175 445.759 883.408 445.572C883.641 445.385 883.758 445.138 883.758 444.83C883.758 444.531 883.651 444.298 883.436 444.13C883.231 443.953 882.923 443.836 882.512 443.78L881.518 443.626C880.697 443.495 880.09 443.262 879.698 442.926C879.315 442.581 879.124 442.072 879.124 441.4C879.124 440.691 879.353 440.145 879.81 439.762C880.277 439.37 880.963 439.174 881.868 439.174H882.4C883.203 439.174 883.842 439.361 884.318 439.734C884.803 440.098 885.079 440.588 885.144 441.204H883.632C883.595 440.98 883.469 440.798 883.254 440.658C883.049 440.518 882.764 440.448 882.4 440.448H881.868C881.429 440.448 881.107 440.532 880.902 440.7C880.706 440.859 880.608 441.097 880.608 441.414C880.608 441.694 880.697 441.904 880.874 442.044C881.051 442.184 881.327 442.282 881.7 442.338L882.722 442.506C883.59 442.627 884.225 442.87 884.626 443.234C885.037 443.589 885.242 444.107 885.242 444.788C885.242 445.525 884.999 446.099 884.514 446.51C884.038 446.921 883.324 447.126 882.372 447.126H881.77ZM891.536 447C891.06 447 890.645 446.907 890.29 446.72C889.936 446.524 889.656 446.249 889.45 445.894C889.254 445.539 889.156 445.129 889.156 444.662V438.152H886.636V436.78H890.668V444.662C890.668 444.961 890.752 445.199 890.92 445.376C891.088 445.544 891.317 445.628 891.606 445.628H893.986V447H891.536ZM897.033 449.52L898.139 446.552L895.269 439.3H896.935L898.545 443.64C898.61 443.827 898.676 444.051 898.741 444.312C898.806 444.573 898.862 444.788 898.909 444.956C898.946 444.788 898.998 444.573 899.063 444.312C899.128 444.051 899.194 443.827 899.259 443.64L900.771 439.3H902.381L898.629 449.52H897.033Z" fill="black"/>
</svg>
